<?xml version="1.0" encoding="UTF-8" standalone="no"?>
<!-- Created with Inkscape (http://www.inkscape.org/) -->

<svg
   xmlns:dc="http://purl.org/dc/elements/1.1/"
   xmlns:cc="http://creativecommons.org/ns#"
   xmlns:rdf="http://www.w3.org/1999/02/22-rdf-syntax-ns#"
   xmlns:svg="http://www.w3.org/2000/svg"
   xmlns="http://www.w3.org/2000/svg"
   xmlns:sodipodi="http://sodipodi.sourceforge.net/DTD/sodipodi-0.dtd"
   xmlns:inkscape="http://www.inkscape.org/namespaces/inkscape"
   width="744.09448819"
   height="1052.3622047"
   id="svg2"
   version="1.1"
   inkscape:version="0.48.5 r10040"
   inkscape:export-filename="/home/user/pulse-programming/example.png"
   inkscape:export-xdpi="90"
   inkscape:export-ydpi="90"
   sodipodi:docname="example.svg">
  <defs
     id="defs4" />
  <sodipodi:namedview
     id="base"
     pagecolor="#ffffff"
     bordercolor="#666666"
     borderopacity="1.0"
     inkscape:pageopacity="0.0"
     inkscape:pageshadow="2"
     inkscape:zoom="0.7"
     inkscape:cx="355.25926"
     inkscape:cy="710.53494"
     inkscape:document-units="px"
     inkscape:current-layer="layer1"
     showgrid="false"
     inkscape:window-width="1920"
     inkscape:window-height="1036"
     inkscape:window-x="0"
     inkscape:window-y="44"
     inkscape:window-maximized="0" />
  <metadata
     id="metadata7">
    <rdf:RDF>
      <cc:Work
         rdf:about="">
        <dc:format>image/svg+xml</dc:format>
        <dc:type
           rdf:resource="http://purl.org/dc/dcmitype/StillImage" />
        <dc:title />
      </cc:Work>
    </rdf:RDF>
  </metadata>
  <g
     inkscape:label="Layer 1"
     inkscape:groupmode="layer"
     id="layer1">
    <path
       style="fill:none;stroke:#000000;stroke-width:20;stroke-linecap:butt;stroke-linejoin:miter;stroke-opacity:1;stroke-miterlimit:4;stroke-dasharray:none"
       d="m 208.57143,152.36218 c -18.55162,4.63791 4.58123,-0.65446 -10,1.42857 -1.94365,0.27767 -3.76607,1.18505 -5.71429,1.42858 -1.89005,0.23625 -3.82866,-0.26938 -5.71428,0 -1.49071,0.21295 -2.82483,1.06335 -4.28572,1.42857 -1.02485,0.25621 -5.37008,-0.3442 -5.71428,0 -0.67344,0.67343 0.79243,2.32885 0,2.85714 -5.15845,3.43896 -3.03602,-0.42833 -7.14286,2.85714 -1.57759,1.26208 -2.85714,2.85715 -4.28571,4.28572 -0.47619,0.47619 -1.02451,0.88982 -1.42858,1.42857 -1.03015,1.37354 -1.82698,2.91217 -2.85714,4.28571 -1.9614,2.61521 -1.4754,0.14048 -2.85714,4.28572 -0.29972,0.89914 0,5.85519 0,7.14285 0,5.71429 0,11.42858 0,17.14286 0,1.47615 0.19003,10.66846 0,11.42857 -0.11549,0.46198 -1.09186,-0.33671 -1.42857,0 -0.14015,0.14015 -0.19539,3.50418 0,4.28572 0.36522,1.46088 0.75513,2.93884 1.42857,4.28571 0.30117,0.60234 0.95238,0.95238 1.42857,1.42857 1.90476,1.90476 4.03152,3.61083 5.71429,5.71429 0.29747,0.37184 -0.245,1.02024 0,1.42857 0.0933,0.15554 5.42395,7.71198 7.14285,8.57143 0.85123,0.42561 5.81552,-0.33184 7.14286,0 1.46089,0.36522 2.93884,0.75513 4.28571,1.42857 1.20468,0.60234 1.65247,2.2548 2.85715,2.85714 1.34687,0.67344 2.82483,1.06335 4.28571,1.42857 0.46197,0.1155 1.00266,-0.21295 1.42857,0 1.20468,0.60234 1.57939,2.43123 2.85715,2.85715 0.9035,0.30117 1.95363,-0.30117 2.85714,0 0.63888,0.21296 0.82623,1.1274 1.42857,1.42857 1.14286,0.57143 3.14286,-0.57143 4.28571,0 0.60234,0.30117 0.82624,1.1274 1.42858,1.42857 0.42591,0.21296 0.95238,0 1.42857,0 0.47619,0 0.95238,0 1.42857,0 2.38095,0 4.7619,0 7.14286,0 1.07793,0 5.15799,0.22252 5.71428,0 0.0323,-0.0129 5.06571,-2.98856 5.71429,-4.28571 0.67343,-1.34687 0.36377,-3.22092 1.42857,-4.28572 11.42857,-11.42857 -1.90476,9.52381 5.71428,-5.71428 1.35085,-2.70169 5.04948,-1.60112 7.14286,-2.85715 0.91305,-0.54783 0.83793,-1.97118 1.42857,-2.85714 0.37356,-0.56033 1.21562,-0.7897 1.42857,-1.42857 0.30117,-0.90351 -0.30117,-1.95364 0,-2.85714 0.21296,-0.63888 1.12741,-0.82624 1.42858,-1.42858 0.21295,-0.42591 -0.15059,-0.97681 0,-1.42857 0.33671,-1.01015 1.03311,-1.8685 1.42857,-2.85714 0.55925,-1.39814 0.75513,-2.93884 1.42857,-4.28571 3.269,-6.53802 -0.5921,6.06202 2.85714,-4.28572 0.25772,-0.77315 0,-5.22761 0,-5.71428 0,-1.90477 0,-3.80953 0,-5.71429 0,-1.42857 0.23486,-2.87658 0,-4.28571 -0.24756,-1.48536 -1.18101,-2.80036 -1.42857,-4.28572 -1.23194,-7.39164 2.03962,-1.32952 -1.42857,-10 -0.25011,-0.62527 -1.26524,-0.77524 -1.42857,-1.42857 -0.34648,-1.38592 0.34648,-2.8998 0,-4.28571 -0.67789,-2.71154 -2.84219,-0.70681 -4.28572,-1.42858 -0.60234,-0.30117 -0.88982,-1.02451 -1.42857,-1.42857 -1.37354,-1.03015 -3.33333,-1.42857 -4.28571,-2.85714 -1.08909,-1.63363 -0.55052,-3.95818 -1.42857,-5.71429 -0.21296,-0.42591 -0.97682,0.15059 -1.42858,0 -1.01015,-0.33671 -2.10422,-0.67564 -2.85714,-1.42857 -2.95576,-2.95576 4.5168,0.11555 -1.42857,-2.85714 -0.90124,-0.45062 -6.24162,0.45062 -7.14286,0 -0.60234,-0.30117 -0.95238,-0.95238 -1.42857,-1.42857 -0.95238,0 -1.95363,0.30117 -2.85714,0 -1.27775,-0.42592 -1.65247,-2.25481 -2.85714,-2.85714 -2.29364,-1.14682 -4.76191,-1.90477 -7.14286,-2.85715 z"
       id="path3041"
       inkscape:connector-curvature="0" />
    <path
       style="fill:none;stroke:#000000;stroke-width:20;stroke-linecap:butt;stroke-linejoin:miter;stroke-opacity:1;stroke-miterlimit:4;stroke-dasharray:none"
       d="m 237.14286,233.79075 c 0,1.90477 0.70741,3.94576 0,5.71429 -0.39546,0.98864 -2.4377,0.44987 -2.85715,1.42857 -1.141,2.66235 -0.82165,5.73917 -1.42857,8.57143 -0.82277,3.8396 -1.74914,7.66137 -2.85714,11.42857 -1.2747,4.33397 -3.13603,8.48835 -4.28571,12.85714 -1.23588,4.69632 -1.90477,9.52381 -2.85715,14.28572 -0.95238,4.7619 -1.9622,9.51268 -2.85714,14.28571 -0.5338,2.84694 -0.59625,5.79704 -1.42857,8.57143 -0.61193,2.03978 -2.06623,3.73701 -2.85714,5.71429 -0.35371,0.88426 0,1.90476 0,2.85714 0,1.42857 0,2.85714 0,4.28571 0,3.80953 0,7.61905 0,11.42858 0,1.90476 -0.26938,3.82866 0,5.71428 0.21295,1.49071 1.13325,2.80911 1.42857,4.28572 0.18677,0.93388 -0.15657,1.91772 0,2.85714 0.32278,1.93667 1.04352,3.78903 1.42857,5.71428 0.0934,0.46695 0,0.95238 0,1.42858 0,2.1989 -0.31357,11.2893 0,12.85714 0.13207,0.66036 1.1274,0.82623 1.42857,1.42857 0.28321,0.56642 -0.29205,3.99366 0,4.28571 0.33672,0.33672 1.09185,-0.33671 1.42857,0 0.33672,0.33672 -0.33672,1.09186 0,1.42858 0.67344,0.67343 2.00531,-0.42592 2.85714,0 3.15865,1.57932 0.44332,0.88663 1.42858,2.85714 0.30117,0.60234 1.21561,0.78969 1.42857,1.42857 0,6.50326 -0.67344,0.0817 1.42857,4.28571 0.42592,0.85184 -0.42592,2.00531 0,2.85715 0.60234,1.20467 2.43122,1.57939 2.85714,2.85714 0.30117,0.90351 -0.30117,1.95363 0,2.85714 0.21296,0.63888 1.26524,0.77525 1.42857,1.42857 0.34648,1.38592 -0.34648,2.8998 0,4.28572 0.16333,0.65333 1.1274,0.82623 1.42857,1.42857 0.21296,0.42592 -0.21295,1.00265 0,1.42857 0.30117,0.60234 1.12741,0.82623 1.42858,1.42857 0.42591,0.85184 -0.67344,2.18371 0,2.85715 0.75292,0.75292 2.30931,0.51551 2.85714,1.42857 1.01015,1.68358 0.69939,3.89133 1.42857,5.71428 0.25011,0.62527 1.17846,0.80331 1.42857,1.42857 0.72918,1.82296 0.69939,3.89133 1.42857,5.71429 0.25011,0.62527 1.17847,0.8033 1.42857,1.42857 0.72919,1.82296 0.69939,3.89133 1.42858,5.71429 0.2501,0.62527 1.1274,0.82623 1.42857,1.42857 0.67343,1.34687 0.75513,2.93884 1.42857,4.28571 0.30117,0.60234 1.1274,0.82624 1.42857,1.42857 0.21296,0.42592 -0.21296,1.00266 0,1.42858 0.30117,0.60233 1.1274,0.82623 1.42857,1.42857 0.67344,1.34687 0.75514,2.93884 1.42857,4.28571 2.56612,5.13224 1.05293,-5.11101 2.85715,5.71429 0.23485,1.40913 0,2.85714 0,4.28571 0.47619,1.42857 1.13325,2.80911 1.42857,4.28572 0.18677,0.93388 0,1.90476 0,2.85714 0,1.90476 0,3.80952 0,5.71428 0,0.47619 0,0.95238 0,1.42858 0,0.47619 -0.33672,1.09185 0,1.42857 0.33671,0.33671 0.95238,0 1.42857,0 2.85714,0 5.71428,0 8.57143,0 14.28571,0 28.57143,0 42.85714,0 4.28571,0 8.57143,0 12.85714,0 1.42857,0 2.8715,0.20203 4.28572,0 7.89796,-1.12828 3.83054,-1.43646 11.42857,-4.28572 1.83837,-0.68939 3.89133,-0.69939 5.71428,-1.42857 0.62527,-0.25011 0.82624,-1.1274 1.42858,-1.42857 1.34687,-0.67344 2.93884,-0.75514 4.28571,-1.42857 0.60234,-0.30117 0.82623,-1.1274 1.42857,-1.42857 0.42592,-0.21296 1.00266,0.21296 1.42857,0 1.20468,-0.60234 1.65247,-2.25481 2.85715,-2.85715 1.34687,-0.67343 2.88757,-0.86931 4.28571,-1.42857 0.98864,-0.39545 1.84699,-1.09185 2.85714,-1.42857 4.54824,-1.51608 9.64354,-2.01311 14.28572,-2.85714 2.38894,-0.43435 4.72472,-1.20874 7.14285,-1.42857 2.84541,-0.25868 5.72602,0.25867 8.57143,0 4.83627,-0.43966 9.45921,-2.32087 14.28572,-2.85715 1.89311,-0.21034 3.80952,0 5.71428,0 0.47619,0 0.9666,0.1155 1.42857,0 1.46089,-0.36522 2.93885,-0.75513 4.28572,-1.42857 0.60234,-0.30117 0.77524,-1.26524 1.42857,-1.42857 3.88057,-0.97014 3.774,0.48507 5.71429,0 1.46088,-0.36522 2.82482,-1.06335 4.28571,-1.42857 0.46197,-0.11549 0.95238,0 1.42857,0 3.80953,0 7.61905,0 11.42857,0 1.90476,0 3.80953,0 5.71429,0 0.47619,0 0.95238,0 1.42857,0 0.47619,0 1.09185,-0.33672 1.42857,0 0.33672,0.33672 0,0.95238 0,1.42857 0.47619,0.95238 0.61058,2.17548 1.42857,2.85714 2.13308,1.77757 4.83255,2.74551 7.14286,4.28572 0.56033,0.37355 1.00788,0.90271 1.42857,1.42857 1.48737,1.85921 2.79835,3.85507 4.28572,5.71429 0.42069,0.52586 1.1274,0.82623 1.42857,1.42857 0.67343,1.34687 0.48787,3.10984 1.42857,4.28571 1.07256,1.3407 3.07166,1.64309 4.28571,2.85714 0.67344,0.67344 -0.42591,2.00531 0,2.85715 0.30117,0.60234 1.1274,0.82623 1.42857,1.42857 0.21296,0.42592 0,0.95238 0,1.42857 0,4.00824 -0.29747,4.06261 5.71429,8.57143 1.57071,1.17803 3.80952,0.95238 5.71429,1.42857 1.90476,2.85714 3.13004,6.31022 5.71428,8.57143 1.4776,1.2929 3.89133,0.69939 5.71429,1.42857 0.62527,0.25011 0.82623,1.1274 1.42857,1.42857 1.34687,0.67344 3.03277,0.59328 4.28571,1.42857 0.79243,0.52829 -0.48999,2.04049 0,2.85715 1.22499,2.04165 3.40145,3.50362 4.28572,5.71428 1.07575,2.68938 0.86051,5.73113 1.42857,8.57143 5.28843,26.44216 0.24915,1.38974 5.71428,21.42857 0.63888,2.34255 1.0294,4.74779 1.42858,7.14286 0.15657,0.93942 -0.42592,2.00531 0,2.85714 0.30117,0.60234 0.95238,0.95238 1.42857,1.42857"
       id="path3043"
       inkscape:connector-curvature="0" />
    <path
       style="fill:none;stroke:#000000;stroke-width:20;stroke-linecap:butt;stroke-linejoin:miter;stroke-opacity:1;stroke-miterlimit:4;stroke-dasharray:none"
       d="m 260,459.50504 c 0,10 0,20 0,30 0,6.66667 0,13.33333 0,20 0,4.28571 0.26734,8.57977 0,12.85714 -0.12475,1.99597 -2.34898,16.03063 -2.85714,18.57143 -2.56844,12.84219 -0.36215,-2.11284 -2.85715,12.85714 -0.0783,0.46972 0,0.95238 0,1.42858 0,1.42857 0.28017,2.88488 0,4.28571 -0.20882,1.04412 -1.09185,1.84699 -1.42857,2.85714 -5.69117,17.07352 -0.42275,1.10793 -1.42857,7.14286 -0.39918,2.39507 -1.16043,4.7296 -1.42857,7.14286 -0.21035,1.89311 0,3.80952 0,5.71428 -0.47619,1.90476 -1.15091,3.77064 -1.42857,5.71429 -0.26938,1.88562 0.37355,3.84651 0,5.71428 -0.38505,1.92526 -1.04352,3.78903 -1.42857,5.71429 -0.0934,0.46694 0.15058,0.97682 0,1.42857 -0.33672,1.01015 -1.09186,1.84699 -1.42857,2.85714 -0.30117,0.90351 0,1.90477 0,2.85715 0,4.7619 0,9.52381 0,14.28571 0,6.09988 0.55088,9.77593 -1.42858,15.71429 -0.62039,1.86117 0.34119,-2.51596 0,-2.85715 -0.33671,-0.33671 -0.95238,0 -1.42857,0"
       id="path3045"
       inkscape:connector-curvature="0" />
    <path
       style="fill:none;stroke:#000000;stroke-width:20;stroke-linecap:butt;stroke-linejoin:miter;stroke-opacity:1;stroke-miterlimit:4;stroke-dasharray:none"
       d="m 101.42857,360.93361 c -1.90476,0.95238 -4.761903,4.76191 -5.714284,2.85714 -0.952381,-1.90476 7.377214,-4.18748 5.714284,-2.85714 -4.022088,3.21767 -8.791356,5.40915 -12.857141,8.57143 -0.375882,0.29235 0,0.95238 0,1.42857 -0.476191,0.47619 -0.826233,1.1274 -1.428572,1.42857 -0.425918,0.21296 -1.091854,-0.33671 -1.428571,0 -0.336718,0.33672 0,0.95238 0,1.42857 0,0.47619 0,0.95238 0,1.42858 0,1.90476 0,3.80952 0,5.71428 0,10.47619 0,20.95238 0,31.42857 0,1.47615 -0.190028,10.66847 0,11.42857 0.115493,0.46198 1.002653,-0.21295 1.428571,0 5.945372,2.97269 -1.527194,-0.0986 1.428572,2.85715 0.336717,0.33671 0.952381,0 1.428571,0 0.47619,0 0.952381,0 1.428571,0 2.938633,0 7.898807,-0.5253 9.999999,0 1.66567,0.41641 2.63485,2.38546 4.28572,2.85714 1.83147,0.52328 3.82866,-0.26937 5.71428,0 1.49071,0.21296 2.80036,1.18101 4.28572,1.42857 1.40913,0.23486 2.85714,0 4.28571,0 1.90476,0 3.80952,0 5.71429,0 7.14285,0 14.28571,0 21.42857,0 0.95238,0 1.90476,0 2.85714,0 0.47619,0 1.00265,0.21296 1.42857,0 0.60234,-0.30117 0.82623,-1.1274 1.42857,-1.42857 0.85184,-0.42592 2.00531,0.42592 2.85715,0 0.60233,-0.30117 0.82623,-1.1274 1.42857,-1.42857 0.42591,-0.21296 1.00265,0.21296 1.42857,0 0.60234,-0.30117 0.82623,-1.1274 1.42857,-1.42857 0.42592,-0.21296 1.09185,0.33671 1.42857,0 0.33672,-0.33672 0,-0.95238 0,-1.42857 0,-3.33334 0,-6.66667 0,-10 0,-3.80953 0,-7.61905 0,-11.42858 0,-1.90476 0,-3.80952 0,-5.71428 0,-0.95238 0.18678,-1.92326 0,-2.85714 -1.48634,-7.43172 -0.95238,-1.42858 -2.85714,-7.14286 -4.70993,-1.68845 -0.66074,-4.83936 -1.42857,-7.14286 -0.33672,-1.01015 -1.03312,-1.86851 -1.42857,-2.85714 -0.55926,-1.39815 -1.06335,-2.82483 -1.42858,-4.28572 -0.11549,-0.46197 0.21296,-1.00265 0,-1.42857 -0.85714,-1.71428 -3.42857,-2.57143 -4.28571,-4.28571 -0.21296,-0.42592 0.26414,-1.03236 0,-1.42857 -0.0591,-0.0887 -6.64419,-6.97664 -7.14286,-7.14286 -0.90351,-0.30117 -2.0053,0.42592 -2.85714,0 -0.42592,-0.21296 0.46197,-1.31308 0,-1.42857 -1.84789,-0.46197 -3.84651,0.37355 -5.71429,0 -0.66035,-0.13207 -0.82623,-1.1274 -1.42857,-1.42857 -0.41104,-0.20552 -13.12327,0 -14.28571,0 -1.13396,0 -6.44478,-0.26178 -7.14286,0 -3.39565,1.27337 -6.38266,4.02733 -10,4.28571 -3.457908,0.24699 -6.550484,-2.51219 -9.999999,-2.85714 -1.498373,-0.14984 -2.824828,1.06335 -4.285714,1.42857 -0.461972,0.11549 -1.002654,-0.21296 -1.428571,0 -0.602339,0.30117 -0.952381,0.95238 -1.428572,1.42857"
       id="path3047"
       inkscape:connector-curvature="0" />
    <path
       style="fill:none;stroke:#000000;stroke-width:20;stroke-linecap:butt;stroke-linejoin:miter;stroke-opacity:1;stroke-miterlimit:4;stroke-dasharray:none"
       d="m 124.28571,425.21933 c 0,5.71428 0,11.42857 0,17.14285 0,2.38095 -0.21556,4.77169 0,7.14286 0.26225,2.88466 1.16633,5.68677 1.42858,8.57143 0.38801,4.26811 -0.6061,8.6145 0,12.85714 0.21295,1.49071 1.06335,2.82483 1.42857,4.28572 0.23098,0.92394 -0.42592,2.0053 0,2.85714 0.30117,0.60234 1.26524,0.77524 1.42857,1.42857 0.30949,1.23797 0,8.15528 0,10 0,0.47619 -0.33672,1.09185 0,1.42857 0.33672,0.33672 0.95238,0 1.42857,0 0.95238,0 1.90476,0 2.85714,0 2.22661,0 5.07708,0.3443 7.14286,0 2.39507,-0.39918 4.72472,-1.20874 7.14286,-1.42857 2.84541,-0.25867 5.71428,0 8.57143,0 0.47619,0 1.00265,0.21296 1.42857,0 0.60234,-0.30117 0.76033,-1.34504 1.42857,-1.42857 3.30759,-0.41345 6.66667,0 10,0 1.90476,0 3.80952,0 5.71428,0 8.57143,0 17.14286,0 25.71429,0 4.28571,0 8.57143,0 12.85714,0 0.95238,0 1.90476,0 2.85715,0 1.42857,0 2.89979,0.34648 4.28571,0 0.65333,-0.16333 0.78969,-1.21561 1.42857,-1.42857 0.90351,-0.30117 1.90476,0 2.85714,0 1.42858,0 2.85715,0 4.28572,0 9.04762,0 18.09524,0 27.14286,0 3.33333,0 6.66666,0 10,0 1.42857,0 2.89979,0.34648 4.28571,0 7.06116,-1.76529 -2.98961,-1.42857 2.85714,-1.42857 0.52463,0 5.6568,0.0575 5.71429,0 0.33672,-0.33672 0,-0.95239 0,-1.42858"
       id="path3049"
       inkscape:connector-curvature="0" />
    <path
       style="fill:none;stroke:#000000;stroke-width:20;stroke-linecap:butt;stroke-linejoin:miter;stroke-opacity:1;stroke-miterlimit:4;stroke-dasharray:none"
       d="m 518.57143,538.07647 c -1.90476,0.47619 -3.85166,0.80769 -5.71429,1.42857 -1.01015,0.33672 -1.84699,1.09185 -2.85714,1.42857 -1.90476,0.47619 -3.80952,0.95238 -5.71429,1.42857 -0.47619,0 -0.96162,-0.0934 -1.42857,0 -1.92525,0.38505 -3.78903,1.04352 -5.71428,1.42857 -0.46695,0.0934 -0.9666,-0.11549 -1.42857,0 -1.46089,0.36523 -2.82483,1.06335 -4.28572,1.42858 -1.38592,0.34647 -2.88488,-0.28017 -4.28571,0 -1.47661,0.29532 -2.82483,1.06335 -4.28572,1.42857 -0.46197,0.11549 -0.97681,-0.15059 -1.42857,0 -1.01015,0.33671 -1.81302,1.21974 -2.85714,1.42857 -1.40083,0.28016 -2.85714,0 -4.28572,0 -0.47619,0 -0.97681,-0.15059 -1.42857,0 -1.01015,0.33672 -1.81302,1.21975 -2.85714,1.42857 -1.54832,0.30966 -5.48968,-0.4133 -7.14286,0 -1.46088,0.36522 -2.80911,1.13325 -4.28571,1.42857 -0.93389,0.18678 -1.90476,0 -2.85714,0 -1.7287,0 -12.83488,-0.29017 -14.28572,0 -0.66036,0.13207 -0.82623,1.1274 -1.42857,1.42857 -0.42592,0.21296 -0.95238,0 -1.42857,0 -2.38095,0 -4.76191,0 -7.14286,0 -6.19047,0 -12.38095,0 -18.57143,0 -2.38095,0 -4.7619,0 -7.14285,0 -0.47619,0 -1.09186,0.33672 -1.42858,0 -0.33671,-0.33671 0.33672,-1.09185 0,-1.42857 -0.33671,-0.33672 -1.00265,0.21296 -1.42857,0 -0.60234,-0.30117 -0.82623,-1.1274 -1.42857,-1.42857 -0.43476,-0.21738 -3.64234,0 -4.28571,0 -0.47619,0 -1.09186,-0.33672 -1.42857,0 -0.0575,0.0575 0,5.18966 0,5.71429 0,3.33333 0,6.66666 0,10 0,2.38095 -0.21557,4.77168 0,7.14285 0.26224,2.88466 0.95238,5.71429 1.42857,8.57143 1.0338,6.20282 1.52605,9.72439 2.85714,15.71429 0.1928,3.44336 2.0356,6.71382 2.85714,10 0.87415,3.49657 -2.91487,-0.80088 1.42857,5.71428 0.26415,0.39622 1.09186,-0.33671 1.42858,0 0.33671,0.33672 0,0.95238 0,1.42857 0,1.42858 0,2.85715 0,4.28572 0,8.09524 0,16.19047 0,24.28571 0,4.28572 0,8.57143 0,12.85715 0,0.47619 0.11549,0.96659 0,1.42857 -0.36523,1.46088 -1.06335,2.82483 -1.42858,4.28571 -0.33183,1.32734 0.42562,6.29163 0,7.14286 -0.30117,0.60234 -1.1274,0.82623 -1.42857,1.42857 -0.21296,0.42592 0,0.95238 0,1.42857 0,1.90476 0.46198,3.8664 0,5.71429 -0.11549,0.46197 -1.31308,-0.46198 -1.42857,0 0,1.90476 0,3.80952 0,5.71428 -0.47619,0 -1.09185,-0.33671 -1.42857,0 -0.71429,0.71429 0.71429,3.57143 0,4.28572 -2.21032,2.21031 -1.42857,-3.81543 -1.42857,-4.28572"
       id="path3051"
       inkscape:connector-curvature="0" />
    <path
       style="fill:none;stroke:#000000;stroke-width:20;stroke-linecap:butt;stroke-linejoin:miter;stroke-opacity:1;stroke-miterlimit:4;stroke-dasharray:none"
       d="m 491.42857,483.79075 c 15.2381,0 30.47619,0 45.71429,0 3.80952,0 7.61904,0 11.42857,0 0.95238,0 1.92326,-0.18677 2.85714,0 1.47661,0.29532 2.82483,1.06335 4.28572,1.42858 0.92394,0.23098 1.90476,0 2.85714,0 0.47619,0 0.95238,0 1.42857,0 0.47619,0 1.21561,0.42591 1.42857,0 0.64736,-1.29473 1.68697,-8.36176 2.85714,-10 1.56571,-2.19199 3.80953,-3.80953 5.71429,-5.71429 0.47619,-2.85714 0.13319,-5.98067 1.42857,-8.57143 1.66326,-3.32652 5.89197,-5.06893 7.14286,-8.57143 1.28128,-3.58759 -1.28128,-7.84098 0,-11.42857 1.25089,-3.50249 5.80775,-5.10016 7.14286,-8.57143 6.72268,-17.47899 -0.96039,-5.66626 0,-11.42857 0.39917,-2.39507 0.66073,-4.83935 1.42857,-7.14286 0.21296,-0.63887 1.1274,-0.82623 1.42857,-1.42857 0.42592,-0.85183 -0.42592,-2.0053 0,-2.85714 0.30117,-0.60234 1.1274,-0.82623 1.42857,-1.42857 0.21296,-0.42592 0,-0.95238 0,-1.42857 0,-0.47619 0,-0.95238 0,-1.42857 0,-2.38096 0,-4.76191 0,-7.14286 0,-0.47619 -0.33672,-1.09186 0,-1.42857 0.33672,-0.33672 1.64153,0.42591 1.42857,0 -1.06479,-2.12959 -2.85714,-3.80953 -4.28571,-5.71429 -1.42857,-1.90476 -2.76147,-3.88519 -4.28572,-5.71428 -4.88141,-5.8577 -15.64418,-18.09354 -21.42857,-22.85715 -3.97605,-3.27439 -8.66577,-5.57759 -12.85714,-8.57143 -5.81238,-4.1517 -10.75409,-9.66276 -17.14286,-12.85714 -2.5555,-1.27775 -5.72602,0.25867 -8.57143,0 -2.41813,-0.21983 -4.7268,-1.18696 -7.14285,-1.42857 -2.36914,-0.23691 -4.76191,0 -7.14286,0 -4.76191,0 -9.52381,0 -14.28572,0 -11.42857,0 -22.85714,0 -34.28571,0 -2.38095,0 -4.77372,0.23691 -7.14286,0 -2.41605,-0.24161 -4.7619,-0.95238 -7.14285,-1.42857 -17.64394,-3.52879 4.39095,0.79835 -15.71429,-2.85714 -4.71111,-0.85657 -11.03697,-2.38942 -15.71429,-2.85715 -12.6701,-1.26701 1.38528,2.2684 -11.42857,-2.85714 -0.88426,-0.35371 -2.85714,0.95238 -2.85714,0 0,-0.47619 0.95238,0 1.42857,0 0.47619,0 1.00266,-0.21296 1.42857,0 0.60234,0.30117 1.1274,0.82623 1.42857,1.42857 0.21296,0.42592 -0.21295,1.00265 0,1.42857 0.30117,0.60234 1.12741,0.82624 1.42858,1.42857 0.21295,0.42592 0,0.95238 0,1.42858 0,1.90476 0,3.80952 0,5.71428 0,7.61905 0,15.2381 0,22.85714 0,9.52381 0,19.04762 0,28.57143 0,1.42857 0,2.85715 0,4.28572 0,0.47619 0,0.95238 0,1.42857 0,0.47619 -0.33672,1.09185 0,1.42857 2.85714,2.85714 1.42857,-9.04762 1.42857,4.28571 0,6.66667 0,13.33334 0,20 0,1.90134 -0.46249,5.7554 0,7.14286 0.15058,0.45176 1.33518,-0.46694 1.42857,0 0.4057,2.02849 0,9.78275 0,12.85714"
       id="path3053"
       inkscape:connector-curvature="0" />
  </g>
</svg>
