<?xml version="1.0" encoding="UTF-8" standalone="no"?>
<!-- Created with Inkscape (http://www.inkscape.org/) -->

<svg
   xmlns:dc="http://purl.org/dc/elements/1.1/"
   xmlns:cc="http://creativecommons.org/ns#"
   xmlns:rdf="http://www.w3.org/1999/02/22-rdf-syntax-ns#"
   xmlns:svg="http://www.w3.org/2000/svg"
   xmlns="http://www.w3.org/2000/svg"
   xmlns:xlink="http://www.w3.org/1999/xlink"
   xmlns:sodipodi="http://sodipodi.sourceforge.net/DTD/sodipodi-0.dtd"
   xmlns:inkscape="http://www.inkscape.org/namespaces/inkscape"
   width="676.9967"
   height="603.61816"
   id="svg2"
   version="1.1"
   inkscape:version="0.48.5 r10040"
   inkscape:export-filename="/home/user/pulse-programming/explanation.png"
   inkscape:export-xdpi="90"
   inkscape:export-ydpi="90"
   sodipodi:docname="explanation.svg">
  <defs
     id="defs4">
    <linearGradient
       id="linearGradient4087">
      <stop
         id="stop4089"
         offset="0"
         style="stop-color:#ececec;stop-opacity:1;" />
      <stop
         id="stop4091"
         offset="1"
         style="stop-color:#ececec;stop-opacity:0;" />
    </linearGradient>
    <linearGradient
       id="linearGradient4071">
      <stop
         style="stop-color:#bdbdbd;stop-opacity:0.99280578;"
         offset="0"
         id="stop4073" />
      <stop
         style="stop-color:#ececec;stop-opacity:0;"
         offset="1"
         id="stop4075" />
    </linearGradient>
    <linearGradient
       inkscape:collect="always"
       xlink:href="#linearGradient4071"
       id="linearGradient4093"
       x1="-144"
       y1="243.5703"
       x2="854.9967"
       y2="243.5703"
       gradientUnits="userSpaceOnUse"
       gradientTransform="matrix(0.67767662,0,0,0.74618607,-46.414565,-41.178435)" />
  </defs>
  <sodipodi:namedview
     id="base"
     pagecolor="#ffffff"
     bordercolor="#666666"
     borderopacity="1.0"
     inkscape:pageopacity="0.0"
     inkscape:pageshadow="2"
     inkscape:zoom="4"
     inkscape:cx="176.97376"
     inkscape:cy="364.91929"
     inkscape:document-units="px"
     inkscape:current-layer="layer3"
     showgrid="false"
     inkscape:window-width="1920"
     inkscape:window-height="1036"
     inkscape:window-x="0"
     inkscape:window-y="44"
     inkscape:window-maximized="0"
     fit-margin-top="0"
     fit-margin-left="0"
     fit-margin-right="0"
     fit-margin-bottom="0" />
  <metadata
     id="metadata7">
    <rdf:RDF>
      <cc:Work
         rdf:about="">
        <dc:format>image/svg+xml</dc:format>
        <dc:type
           rdf:resource="http://purl.org/dc/dcmitype/StillImage" />
        <dc:title></dc:title>
      </cc:Work>
    </rdf:RDF>
  </metadata>
  <g
     inkscape:groupmode="layer"
     id="layer3"
     inkscape:label="bg"
     transform="translate(144,162.23878)">
    <rect
       inkscape:export-ydpi="90"
       inkscape:export-xdpi="90"
       inkscape:export-filename="/home/user/pulse-programming/explanation.png"
       transform="scale(-1,-1)"
       y="-443.37939"
       x="-532.9967"
       height="605.61816"
       width="676.9967"
       id="rect4095"
       style="fill:#ffffff;fill-opacity:1;stroke:none;display:inline" />
    <rect
       style="fill:url(#linearGradient4093);fill-opacity:1;stroke:none;display:inline;stroke-width:7;stroke-miterlimit:4;stroke-dasharray:none"
       id="rect4062"
       width="676.9967"
       height="605.61816"
       x="-144"
       y="-162.23877"
       inkscape:export-filename="/home/user/pulse-programming/explanation.png"
       inkscape:export-xdpi="90"
       inkscape:export-ydpi="90" />
  </g>
  <g
     inkscape:label="lines"
     inkscape:groupmode="layer"
     id="layer1"
     style="display:inline"
     transform="translate(109.70534,124.92838)">
    <path
       style="fill:none;stroke:#000000;stroke-width:7;stroke-linecap:butt;stroke-linejoin:miter;stroke-miterlimit:4;stroke-opacity:1;stroke-dasharray:none"
       d="m 45.388437,68.688432 c 0.327016,0.336591 0.654033,0.673182 0.981049,1.009773 0.08175,0.168295 0.146121,0.382433 0.245262,0.504886 0.313513,0.387231 0.644996,0.713294 0.981049,1.009774 0.237626,0.209642 0.511321,0.240842 0.735787,0.504886 0.354912,0.41749 0.630531,1.081725 0.981049,1.514663 0.0701,0.08658 0.164621,-0.02763 0.245262,0 0.411194,0.141075 0.830838,0.233512 1.226311,0.504882 0.241006,0.165373 0.404673,1.249564 0.490525,1.514664 0.06413,0.19803 0.163508,0.33659 0.245262,0.50488 0.245262,0.50489 0.490525,1.00977 0.735787,1.51466 0.08175,0.1683 0.181129,0.30686 0.245262,0.50489 0.101404,0.31312 0.143859,0.69665 0.245262,1.00977 0.148845,0.45961 0.627095,1.06716 0.735787,1.51466 0.0623,0.25651 -0.03217,1.18354 0,1.51466 0.06611,0.68042 0.120074,1.37528 0.245263,2.01955 0.04294,0.22098 0.202322,0.2839 0.245262,0.50488 0.375256,1.93123 0.0071,2.03422 0.735787,3.53421 0.05781,0.119 0.187453,-0.119 0.245262,0 0.05781,0.119 -0.05781,0.38588 0,0.50489 0.654032,0 -0.08175,-0.1683 0.245262,0.50489 0.05781,0.119 0.187453,-0.11901 0.245262,0 0.05781,0.119 -0.05781,0.38588 0,0.50488 0.05781,0.119 0.187454,-0.119 0.245263,0 0.115617,0.23801 -0.115618,0.77177 0,1.00978 0.115617,0.238 0.344278,-0.15053 0.490524,0 0.206823,0.21287 0.283701,0.79689 0.490525,1.00977 0.231235,0.238 0.504551,0.26688 0.735786,0.50489 0.103412,0.10643 0.137914,0.41649 0.245263,0.50488 0.620174,0.31916 1.130409,0.52689 1.716837,1.00978 0.169732,0.13976 0.32079,0.36512 0.490523,0.50488 0.24004,0.19765 0.50455,0.26688 0.735787,0.50489 0.103411,0.10643 0.131891,0.45821 0.245263,0.50489 0.320666,0.13202 0.663797,-0.16328 0.981047,0 0.07932,0.0408 -0.07312,0.42961 0,0.50488 0.301495,0.31032 0.668077,0.24718 0.98105,0.50489 0.107347,0.0884 0.137916,0.41649 0.245263,0.50488 0.312973,0.25771 0.668078,0.24718 0.98105,0.50489 0.403262,0.33206 0.148117,0.98601 0.490523,1.51466 0.206822,0.31932 0.50455,0.26688 0.735787,0.50488 0.22541,0.23202 0.794946,1.89185 0.98105,2.01955 0.155116,0.10644 0.335407,-0.10644 0.490523,0 0.109686,0.0753 0.141849,0.39845 0.245264,0.50489 0.231233,0.23801 0.50455,0.26688 0.735786,0.50488 0.206822,0.21288 0.283702,0.7969 0.490524,1.00978 0.07312,0.0753 0.172139,-0.0753 0.245263,0 0.103411,0.10644 0.141849,0.39844 0.24526,0.50488 0.327017,0.3366 0.245263,-0.16829 0.245263,-0.50488 0,-0.33659 0,-0.67318 0,-1.00978 0,-1.3347 -0.102221,-3.35178 0.245264,-4.54397 0.09405,-0.3227 0.361258,-0.23879 0.490523,-0.50489 0.507457,-1.04463 -0.77546,0.0408 0.245263,-1.00977 0.07312,-0.0753 0.163507,0 0.24526,0 0.747826,0 0.0035,0.51171 0.245264,1.00977 0.05781,0.119 0.187453,-0.119 0.245263,0 0.507457,1.04463 -0.77546,-0.0409 0.245263,1.00977 0.146244,0.15053 0.32924,-0.0553 0.490524,0 0.411194,0.14108 0.821893,0.29676 1.22631,0.50489 0.250809,0.12908 0.484977,0.37581 0.735786,0.50488 0.07932,0.0408 0.17214,-0.0753 0.245264,0 0.10341,0.10644 0.141849,0.39845 0.245263,0.50489 0.07312,0.0753 0.163507,0 0.24526,0 0.08176,0 0.16351,0 0.245263,0"
       id="path3962"
       inkscape:connector-curvature="0" />
    <rect
       style="fill:#002b11;stroke:none"
       id="rect4024"
       width="59.043415"
       height="25.809397"
       x="193.04445"
       y="5.3103981" />
    <path
       style="fill:none;stroke:#000000;stroke-width:7;stroke-linecap:butt;stroke-linejoin:miter;stroke-miterlimit:4;stroke-opacity:1;stroke-dasharray:none"
       d="m 211,64.362186 c 0,0.833333 0,1.666667 0,2.5 0,0.166667 -0.11785,0.382149 0,0.5 0.11785,0.117851 0.35093,-0.07453 0.5,0 0.8,0.4 0.2,0.6 1,1.000004 0.14907,0.0745 0.38215,-0.11785 0.5,0 0.11785,0.11785 -0.0745,0.35092 0,0.5 0.10541,0.21081 0.39459,0.28918 0.5,0.5 0.0745,0.14907 -0.0745,0.35092 0,0.5 0.10344,0.20687 1.28807,1.35871 1.5,1.5 0.31009,0.20672 0.68991,0.29327 1,0.5 0.21193,0.14128 1.39656,1.29312 1.5,1.5 0.34484,0.68967 -0.60553,0.44723 0.5,1 0.31543,0.15771 2.18456,-0.15772 2.5,0 0.21082,0.10541 0.28918,0.39459 0.5,0.5 0.18082,0.0904 2.15223,0 2.5,0 2,0 4,0 6,0 0.12126,0 1.48392,0.0161 1.5,0 0.11785,-0.11786 -0.11785,-0.38215 0,-0.5 0.11785,-0.11786 0.38215,0.11785 0.5,0 0.11785,-0.11786 -0.11785,-0.38215 0,-0.5 0.11785,-0.11786 0.35093,0.0745 0.5,0 0.21082,-0.10541 0.28918,-0.39459 0.5,-0.5 0.29814,-0.14908 0.70186,0.14907 1,0 0.21082,-0.10541 0.28918,-0.39459 0.5,-0.5 0.68968,-0.34484 0.44724,0.60552 1,-0.5 0.0745,-0.14908 -0.0745,-0.35093 0,-0.5 0.10541,-0.21082 0.39459,-0.28919 0.5,-0.5 0.12376,-0.24752 -0.0628,-2.18611 0,-2.5 0.16667,-0.5 0.33333,-1.000004 0.5,-1.500004 0.16667,-0.166667 0.41246,-0.281156 0.5,-0.5 0.25521,-0.638034 0.24479,-1.361965 0.5,-2 0.17507,-0.437688 0.73851,-0.607768 1,-1 0.20672,-0.310087 0.29327,-0.689913 0.5,-1 0.13074,-0.196116 0.39459,-0.289181 0.5,-0.5 0.0745,-0.149071 -0.11785,-0.382149 0,-0.5 0.11785,-0.117851 0.38215,0.117851 0.5,0 0.11785,-0.117851 0,-0.333333 0,-0.5 0,-0.166667 0,-0.333333 0,-0.5 0,-2 0,-4 0,-6 0,-0.5 0.12127,-1.014929 0,-1.5 -0.0572,-0.228665 -0.39459,-0.289181 -0.5,-0.5 -0.14907,-0.298142 0.2357,-0.764298 0,-1 -0.2357,-0.235702 -0.7643,0.235702 -1,0 -0.10222,-0.102218 0.0991,-1.301754 0,-1.5 -0.10541,-0.210818 -0.39459,-0.289181 -0.5,-0.5 -0.0745,-0.149071 0.0745,-0.350929 0,-0.5 -0.10541,-0.210818 -0.39459,-0.289181 -0.5,-0.5 -0.14907,-0.298142 0.2357,-0.764298 0,-1 -0.11785,-0.117851 -0.38215,0.117851 -0.5,0 -0.11785,-0.117851 0.11785,-0.382149 0,-0.5 -0.11785,-0.117851 -0.35093,0.07454 -0.5,0 -0.76579,-0.382894 -0.39101,-0.891008 -1,-1.5 -1.95137,-1.951367 -0.26853,0.115738 -1.5,-0.5 -0.21082,-0.105409 -0.30388,-0.369256 -0.5,-0.5 -0.31009,-0.206724 -0.68991,-0.293275 -1,-0.5 -0.19612,-0.130744 -0.33333,-0.333333 -0.5,-0.5 -0.16667,-0.166666 -0.39459,-0.289181 -0.5,-0.5 -0.0745,-0.149071 0.11785,-0.382149 0,-0.5 -0.33333,-0.333333 -0.66667,0.333334 -1,0 -1.03452,-1.034518 1.58088,0.04044 -0.5,-1 -0.14907,-0.07453 -0.38215,0.117851 -0.5,0 -0.11785,-0.117851 0.11785,-0.382149 0,-0.5 -0.11785,-0.117851 -0.35093,0.07454 -0.5,0 -0.21082,-0.105409 -0.33333,-0.333333 -0.5,-0.5 -0.16667,-0.166666 -0.36926,-0.303884 -0.5,-0.5 -0.20673,-0.310087 -0.29328,-0.689913 -0.5,-1 -0.26149,-0.392232 -0.66667,-0.666666 -1,-1 -0.26323,-0.263232 -1.23296,-1.366479 -1.5,-1.5 -0.14907,-0.07453 -0.35093,0.07454 -0.5,0 -0.21082,-0.105409 -0.33333,-0.333333 -0.5,-0.5 -0.16667,-0.166666 -0.39459,-0.289181 -0.5,-0.5 -0.0745,-0.149071 0.11785,-0.382149 0,-0.5 -0.11785,-0.117851 -0.38215,0.117851 -0.5,0 -0.11785,-0.117851 0.11785,-0.382149 0,-0.5 -0.11785,-0.117851 -0.35093,0.07454 -0.5,0 -0.42164,-0.210818 -0.57836,-0.789181 -1,-1 -0.14907,-0.07453 -0.38215,0.117851 -0.5,0 -0.11785,-0.117851 0.11785,-0.382149 0,-0.5 -0.11785,-0.117851 -0.33333,0 -0.5,0 -0.83333,0 -1.66667,0 -2.5,0 -1.33333,0 0.16667,0.166667 -0.5,-0.5 -0.0161,-0.01608 -1.37874,0 -1.5,0 -4,0 -8,0 -12,0 -1.33333,0 -2.66667,0 -4,0 -0.33333,0 -0.68377,-0.105409 -1,0 -0.22361,0.07454 -0.28918,0.394591 -0.5,0.5 -0.14907,0.07454 -0.38215,-0.117851 -0.5,0 -0.11785,0.117851 0,0.333334 0,0.5 0,1.166667 0,2.333334 0,3.5 0,0.183619 -0.0201,1.97988 0,2 0.11785,0.117851 0.38215,-0.117851 0.5,0 0.11785,0.117851 0,0.333334 0,0.5 0.16667,0 0.38215,-0.117851 0.5,0 0.0161,0.01608 0,1.378737 0,1.5 0,2.833334 0,5.666667 0,8.5 0,1 0,2 0,3 0,0.333334 0.10541,0.683772 0,1 -0.0745,0.223607 -0.39459,0.289182 -0.5,0.5 -0.0745,0.149071 0.11785,0.382149 0,0.5 -0.11785,0.117851 -0.38215,0.117851 -0.5,0 -0.11785,-0.117851 0,-0.333333 0,-0.5"
       id="path3998"
       inkscape:connector-curvature="0"
       sodipodi:nodetypes="cssccscccccscscssccccccssccccccscccssssscssscccsssscssssscsscsscsccsccscsssccsssscsssccssscsccsssccssc" />
    <path
       style="fill:none;stroke:#000000;stroke-width:6.90691805;stroke-linecap:butt;stroke-linejoin:miter;stroke-miterlimit:4;stroke-opacity:1;stroke-dasharray:none"
       d="m 64.953459,101.08578 c 1.048039,-1.453916 3.144119,1.09043 4.287436,0 0.516498,-0.49261 0.116508,-1.811046 0.61249,-2.336632 0.844624,-0.895071 2.194597,-0.699402 3.062455,-1.557755 1.031907,-1.020625 1.328975,-3.039086 2.449963,-3.894387 1.064902,-0.812525 2.528595,-0.171477 3.674945,-0.778877 8.190717,-6.943846 0.06517,-0.812026 6.124908,-3.894386 1.892143,-0.962474 -0.479005,-0.778877 1.224982,-0.778877 0.204168,0 0.408323,0 0.61249,0 0.204168,0 0.468127,-0.183597 0.612491,0 0.966853,1.229504 -1.511713,0.477249 0.612491,1.557754 0.230542,0.1173 4.805027,1.482327 4.899926,1.557754 0.979373,0.778379 1.416973,2.458699 2.449962,3.11551 0.73043,0.464429 1.641516,-0.146896 2.449966,0 0.639134,0.11605 1.260013,0.411699 1.83747,0.778877 0.258256,0.164203 0.408326,0.519247 0.612496,0.778877 0.20417,0.259616 0.48336,0.450472 0.61249,0.778878 0.19476,0.495319 -0.1691,3.249304 0,3.894384 0.0913,0.34832 0.48337,0.45047 0.61248,0.77888 0.1214,0.30881 -0.12521,2.17739 0,2.33663 0.14437,0.18358 0.46814,-0.1836 0.6125,0 0.14436,0.18358 -0.0913,0.54664 0,0.77887 0.12913,0.3284 0.48336,0.45048 0.61249,0.77889 0.24499,0.6231 -0.245,1.71352 0,2.33663 0.25825,0.65679 0.96673,0.90093 1.22498,1.55775 0.19248,0.48955 -0.19248,2.62596 0,3.11551 0.12913,0.32839 0.48337,0.45047 0.6125,0.77888 0.24499,0.6231 -0.24501,1.71353 0,2.33664 0.12911,0.32838 0.48336,0.45046 0.61248,0.77887 0.0913,0.23221 -0.14436,0.59528 0,0.77887 0.14437,0.18359 0.46813,-0.18359 0.61249,0 0.14436,0.18359 0,0.51926 0,0.77888 0,1.118 -0.16114,3.85355 0,4.67326 0.0701,0.3562 0.55587,0.41884 0.6125,0.77888 0.1564,0.99446 0,4.72317 0,6.23102 0,4.154 0,8.30802 0,12.46203 0,4.93289 0,9.86578 0,14.79868 0,1.03849 0,2.077 0,3.1155 0,0.77888 0.14854,1.581 0,2.33664 -0.0701,0.3562 -0.40833,0.51924 -0.6125,0.77887 0,1.0385 0.19807,2.108 0,3.11551 -0.0495,0.25188 -0.46812,-0.1836 -0.61249,0 -0.14436,0.18358 0,0.51925 0,0.77888 0,0.77888 0.14856,1.581 0,2.33664 -0.0701,0.35619 -0.48337,0.45046 -0.61248,0.77887 -0.0913,0.23222 0.0646,0.53256 0,0.77888 -0.14437,0.55074 -0.44295,1.01873 -0.6125,1.55775 -0.23977,0.76229 -0.32376,1.6023 -0.61249,2.33664 -0.25825,0.65679 -0.90466,0.94673 -1.22498,1.55775 -0.25323,0.48302 -0.46813,1.007 -0.6125,1.55775 -0.0646,0.2463 0.14437,0.59528 0,0.77888 -0.14436,0.18358 -0.56297,-0.25188 -0.61248,0 -0.19807,1.00749 0,2.077 0,3.11551 0,1.03849 0,2.077 0,3.1155 0,2.077 0,4.154 0,6.23103 0,0.77887 0,1.55775 0,2.33662 0,0.25962 -0.04,0.5243 0,0.77889 0.16509,1.04967 0.40832,2.077 0.61248,3.1155 0.19625,0.99822 0.78565,4.33475 1.22499,5.45214 0.0813,0.2068 1.67484,2.23323 1.83748,2.33664 0.1864,0.11854 1.56162,0 1.83747,0 1.02081,0 2.04163,0 3.06245,0 0.81666,0 1.64151,-0.14689 2.44997,0 1.73485,-1.71796 1.54933,1.36686 2.44995,1.55776 1.00693,0.21339 2.04788,-0.14332 3.06246,0 1.67327,0.23641 3.24904,1.13787 4.89993,1.55774 0.20956,0.0533 1.77479,-0.0798 1.83747,0 0.14436,0.18359 -0.14437,0.59528 0,0.77888 0.14436,0.18358 0.40832,0 0.61249,0 0.20417,0 0.40833,0 0.61249,0 0.81666,0 1.63331,0 2.44996,0 0.20417,0 0.41442,-0.0629 0.61249,0 0.62635,0.19911 1.21113,0.57976 1.83747,0.77888 0.19808,0.0629 0.42989,-0.116 0.6125,0 0.25825,0.1642 0.35423,0.61468 0.61249,0.77888 0.18261,0.11599 0.40832,0 0.61248,0 0.20418,0 0.40834,0 0.6125,0"
       id="path4006"
       inkscape:connector-curvature="0" />
    <path
       style="fill:none;stroke:#000000;stroke-width:6.26000452;stroke-linecap:butt;stroke-linejoin:miter;stroke-miterlimit:4;stroke-opacity:1;stroke-dasharray:none"
       d="m 227.78059,81.012843 c 0,0.896979 0.77669,2.690936 0,2.690936 -0.77669,0 -0.5492,-3.325197 0,-2.690936 0.7174,0.82851 0.58251,3.334224 0.58251,4.709145 0,1.793957 0,3.587914 0,5.381885 0,0.442051 0.10949,1.638644 0,2.018208 -0.13729,0.475689 -0.44521,0.869766 -0.58251,1.345468 -0.12285,0.425461 0.17368,0.944324 0,1.345468 -0.12285,0.283641 -0.4597,0.389087 -0.58251,0.672741 -0.0867,0.200565 0.0867,0.472148 0,0.672727 -0.34951,0.807292 -1.39803,1.210931 -1.74753,2.018209 -0.0867,0.200565 0,0.448489 0,0.67274 -0.19418,0.448476 -0.34168,0.928256 -0.58251,1.345466 -0.31159,0.53975 -2.24629,2.30392 -2.33006,2.69094 -0.14128,0.65265 0.14128,1.36554 0,2.01821 -0.0667,0.30766 -0.4597,0.38908 -0.58251,0.67274 -0.0867,0.20056 0.0867,0.47215 0,0.67272 -0.34951,0.8073 -1.39803,1.21094 -1.74753,2.01821 -0.31068,0.71758 0.31067,0.62788 0,1.34547 -0.24562,0.5673 -0.91942,0.77817 -1.16503,1.34547 -0.27459,0.63426 -0.30792,1.38395 -0.58251,2.01821 -0.12286,0.28364 -0.45971,0.38908 -0.58252,0.67274 -0.0867,0.20056 0.0867,0.47215 0,0.67273 -0.2456,0.56729 -0.91941,0.77817 -1.16502,1.34548 -0.17367,0.40113 0.27459,1.02832 0,1.34546 -0.30701,0.35456 -0.85801,0.31817 -1.16502,0.67273 -0.1373,0.15857 0.1373,0.51417 0,0.67274 -0.1373,0.15856 -0.40885,-0.10019 -0.58251,0 -0.15467,0.0893 -1.67021,1.83959 -1.74754,2.01821 -0.0867,0.20057 0.13729,0.51416 0,0.67273 -0.1373,0.15857 -0.40885,-0.10019 -0.58252,0 -0.69902,0.40365 -1.04852,1.61457 -1.74754,2.01821 -0.34733,0.20056 -0.81768,-0.20058 -1.16501,0 -0.24562,0.14183 -0.33691,0.5309 -0.58252,0.67274 -0.17367,0.10019 -0.40884,-0.10019 -0.58251,0 -0.93364,0.53911 -0.23139,0.80634 -1.16503,1.34547 -0.58251,0.22423 -1.16502,0.44849 -1.74754,0.67274 -0.19417,0 -0.39831,-0.0709 -0.58251,0 -0.4119,0.15856 -0.80376,0.39458 -1.16502,0.67272 -0.22848,0.17592 -0.31611,0.59583 -0.58251,0.67274 -0.56513,0.16315 -1.18242,-0.16317 -1.74754,0 -0.5328,0.15383 -0.65511,1.1099 -1.16503,1.34547 -0.74333,0.34338 -1.58673,0.32935 -2.33004,0.67273 -0.25496,0.11776 -0.33691,0.53092 -0.58251,0.67274 -0.54921,0.31713 -1.19835,0.3556 -1.74755,0.67274 -0.86835,0.50141 -0.91502,2.11407 -1.74752,2.69094 -0.49951,0.34611 -1.18243,-0.16316 -1.74755,0 -1.17819,0.34016 -0.0134,1.57488 -1.16502,2.01821 -0.36842,0.14182 -0.77669,0 -1.16503,0 -0.77668,0.89696 -1.43624,1.95361 -2.33004,2.69093 -0.49967,0.41217 -1.27583,0.21877 -1.74754,0.67274 -0.74584,0.71778 -1.00171,1.97315 -1.74754,2.69094 -0.47171,0.45396 -1.19834,0.35559 -1.74753,0.67274 -0.24562,0.14182 -0.33691,0.53091 -0.58252,0.67273 -0.5492,0.31713 -1.22101,0.30789 -1.74754,0.67274 -0.47093,0.32631 -0.70806,0.99364 -1.16502,1.34546 -0.16156,0.12447 -0.39414,-0.0543 -0.58251,0 -0.59569,0.17199 -1.19835,0.3556 -1.74754,0.67274 -0.24561,0.14183 -0.33691,0.53091 -0.58251,0.67273 -0.34734,0.20058 -0.81768,-0.20058 -1.16503,0 -0.2456,0.14184 -0.33689,0.53091 -0.58251,0.67274 -0.17367,0.10019 -0.44522,-0.15857 -0.58252,0 -0.13729,0.15856 0.0867,0.47215 0,0.67274 -0.0774,0.17861 -1.59286,1.92889 -1.74752,2.0182 -0.17368,0.10019 -0.40885,-0.10019 -0.58252,0 -0.11154,0.0644 -2.27431,2.56216 -2.33005,2.69095 -0.0867,0.20056 0.0867,0.47215 0,0.67273 -1.21214,2.79976 0.0402,-0.71918 -1.16503,0.67274 -0.2746,0.31713 0.38834,1.34546 0,1.34546 -0.19416,0 -0.19416,-0.67274 0,-0.67274 0.19418,0 0.0382,0.45285 0,0.67274 -0.19416,0.89698 -0.38832,1.79396 -0.5825,2.69094 0,0.67274 0.0957,1.35463 0,2.01821 -0.18544,1.28484 -1.25784,3.76654 -1.74754,4.70914 -0.14128,0.27193 -0.52867,0.36177 -0.58251,0.67274 -0.15233,0.87956 0.15232,1.81138 0,2.69094 -0.10782,0.62195 -0.91942,0.77817 -1.16503,1.34548 -0.0867,0.20057 0.0867,0.47215 0,0.67273 -0.12286,0.28364 -0.48052,0.37827 -0.58252,0.67274 -0.29731,0.85844 -0.22447,1.86395 -0.58251,2.69093 -0.0867,0.20057 -0.40883,-0.10018 -0.5825,0 -0.24562,0.14184 -0.45971,0.38909 -0.58251,0.67274 -0.31069,0.71758 0.31066,0.62788 0,1.34547 -0.12286,0.28364 -0.45972,0.38909 -0.58252,0.67273 -0.0766,0.17689 0,2.33916 0,2.69095"
       id="path4008"
       inkscape:connector-curvature="0" />
    <rect
       style="fill:#002b11;stroke:none"
       id="rect4020"
       width="44.194172"
       height="25.809397"
       x="135.7645"
       y="264.99878" />
    <text
       xml:space="preserve"
       style="font-size:40px;font-style:normal;font-weight:normal;line-height:125%;letter-spacing:0px;word-spacing:0px;fill:#ffffff;fill-opacity:1;stroke:none;font-family:Sans"
       x="141.2153"
       y="284.61218"
       id="text3968"
       sodipodi:linespacing="125%"><tspan
         sodipodi:role="line"
         id="tspan3970"
         x="141.2153"
         y="284.61218"
         style="font-size:20px;fill:#ffffff;stroke:none">OR</tspan></text>
    <rect
       y="13.078167"
       x="16.294666"
       height="25.809397"
       width="115.25841"
       id="rect4022"
       style="fill:#002b11;stroke:none" />
    <text
       xml:space="preserve"
       style="font-size:40px;font-style:normal;font-weight:normal;line-height:125%;letter-spacing:0px;word-spacing:0px;fill:#ffffff;fill-opacity:1;stroke:none;font-family:Sans"
       x="20.621319"
       y="31.794167"
       id="text3939"
       sodipodi:linespacing="125%"><tspan
         sodipodi:role="line"
         id="tspan3941"
         x="20.621319"
         y="31.794167"
         style="font-size:20px;fill:#ffffff">Generator</tspan></text>
    <text
       sodipodi:linespacing="125%"
       id="text3964"
       y="24.612186"
       x="195.59293"
       style="font-size:40px;font-style:normal;font-weight:normal;line-height:125%;letter-spacing:0px;word-spacing:0px;fill:#ffffff;fill-opacity:1;stroke:none;font-family:Sans"
       xml:space="preserve"><tspan
         style="font-size:20px;fill:#ffffff"
         y="24.612186"
         x="195.59293"
         id="tspan3966"
         sodipodi:role="line">Pulse</tspan></text>
    <path
       style="fill:none;stroke:#000000;stroke-width:3;stroke-linecap:butt;stroke-linejoin:miter;stroke-miterlimit:4;stroke-opacity:1;stroke-dasharray:none"
       d="M 82.40916,89.4457 C 80.287842,37.119799 88.41957,35.352032 88.41957,35.352032"
       id="path4026"
       inkscape:connector-curvature="0" />
    <path
       style="fill:none;stroke:#000000;stroke-width:10;stroke-linecap:butt;stroke-linejoin:miter;stroke-miterlimit:4;stroke-opacity:1;stroke-dasharray:none"
       d="m 209.5,123.86219 c 0.5,0.66666 1,1.33333 1.5,2 0,0.16666 -0.0745,0.35092 0,0.5 0.10541,0.21081 0.33333,0.33333 0.5,0.5 0.39054,0.39054 1.21237,1.06855 1.5,1.5 0.20672,0.31008 0.29327,0.68991 0.5,1 0.46225,0.69337 1.07125,1.28542 1.5,2 0.1715,0.28583 -0.14907,0.70185 0,1 0.10541,0.21081 0.39459,0.28918 0.5,0.5 0.0745,0.14907 -0.11785,0.38214 0,0.5 0.11785,0.11785 0.38215,-0.11786 0.5,0 0.11785,0.11785 -0.11785,0.38214 0,0.5 0.11785,0.11785 0.33333,0 0.5,0 0.16667,0 0.33333,0 0.5,0 0.3544,0 2.87072,-0.0646 3,0 0.42164,0.21081 0.56231,0.82492 1,1 0.63803,0.25521 1.51409,0.0141 2,0.5 0.48591,0.48591 0.19268,1.38536 0.5,2 0.0745,0.14907 0.35093,-0.0745 0.5,0 0.21082,0.10541 0.33333,0.33333 0.5,0.5 0.5,0.5 1,1 1.5,1.5 0.16667,0.16666 0.33333,0.33333 0.5,0.5 0.16667,0.16666 0.28116,0.41246 0.5,0.5 0.63803,0.25521 1.36196,0.24478 2,0.5 0.21884,0.0875 0.28918,0.39459 0.5,0.5 0.4714,0.2357 1.02859,0.26429 1.5,0.5 0.7774,0.3887 0.73792,1.74597 1.5,2 0.002,7.5e-4 1.49952,-4.8e-4 1.5,0 0.11785,0.11785 0,0.33333 0,0.5 0.16667,0 0.38215,-0.11786 0.5,0 0.11785,0.11785 -0.11785,0.38214 0,0.5 0.11785,0.11785 0.35093,-0.0745 0.5,0 0.21082,0.10541 0.28918,0.39459 0.5,0.5 0.14907,0.0745 0.33333,0 0.5,0 0.81869,0 1,0.1813 1,1"
       id="path4030"
       inkscape:connector-curvature="0" />
    <path
       style="fill:none;stroke:#000000;stroke-width:7;stroke-linecap:butt;stroke-linejoin:miter;stroke-miterlimit:4;stroke-opacity:1;stroke-dasharray:none"
       d="m 255,159.86219 c 0.66667,0.83333 1.24538,1.74538 2,2.5 0.60899,0.60899 1.1171,0.23421 1.5,1 0.0745,0.14907 0,0.33333 0,0.5 0.5,0.5 0.93431,1.07573 1.5,1.5 0.26667,0.2 0.70186,-0.14908 1,0 0.21082,0.10541 0.28918,0.39459 0.5,0.5 0.14907,0.0745 0.35093,-0.0745 0.5,0 0.21082,0.10541 0.26887,0.45377 0.5,0.5 0.65372,0.13074 1.35324,-0.16169 2,0 0.16169,0.0404 -0.11785,0.38214 0,0.5 0.11785,0.11785 0.33333,0 0.5,0 1.16667,0 2.33333,0 3.5,0 0.83333,0 1.66667,0 2.5,0 0.16667,0 0.38215,-0.11786 0.5,0 0.11785,0.11785 0,0.33333 0,0.5"
       id="path4032"
       inkscape:connector-curvature="0" />
    <rect
       y="154.49878"
       x="270.7645"
       height="25.809397"
       width="53.694172"
       id="rect4034"
       style="fill:#002b11;stroke:none" />
    <text
       sodipodi:linespacing="125%"
       id="text4036"
       y="174.11218"
       x="276.2153"
       style="font-size:40px;font-style:normal;font-weight:normal;line-height:125%;letter-spacing:0px;word-spacing:0px;fill:#ffffff;fill-opacity:1;stroke:none;font-family:Sans"
       xml:space="preserve"><tspan
         style="font-size:20px;fill:#ffffff;stroke:none"
         y="174.11218"
         x="276.2153"
         id="tspan4038"
         sodipodi:role="line">NOT</tspan></text>
    <path
       style="fill:none;stroke:#000000;stroke-width:5;stroke-linecap:butt;stroke-linejoin:miter;stroke-miterlimit:4;stroke-opacity:1;stroke-dasharray:none"
       d="m 209.5,240.86219 c 0.66667,0.16666 1.36196,0.24478 2,0.5 0.15706,0.0628 1.91265,1.82529 2,2 0.0745,0.14907 -0.0745,0.35092 0,0.5 0.21082,0.42163 0.88567,0.54267 1,1 0.12127,0.48507 -0.12127,1.01492 0,1.5 0.0572,0.22866 0.37873,0.29788 0.5,0.5 0.38348,0.63913 0.61652,1.36086 1,2 0.12127,0.20211 0.41246,0.28115 0.5,0.5 0.25521,0.63803 0.24479,1.36196 0.5,2 0.0875,0.21884 0.36926,0.30388 0.5,0.5 0.20672,0.31008 0.29327,0.68991 0.5,1 0.62581,0.9387 0.75142,0.25047 1.5,0.5 0.35355,0.11785 0.68991,0.29327 1,0.5 0.43145,0.28763 1.10946,1.10945 1.5,1.5 0.16667,0.16666 0.28918,0.39459 0.5,0.5 0.31426,0.15713 1.68574,-0.15714 2,0 0.21082,0.1054 0.27133,0.44283 0.5,0.5 0.64676,0.16169 1.33333,0 2,0 1.33333,0 2.66667,0 4,0 0.34777,0 2.31918,0.0904 2.5,0 0.0957,-0.0479 1.95214,-1.90429 2,-2 0.13562,-0.27125 -0.13681,-1.86319 0,-2 0.11785,-0.11786 0.38215,0.11785 0.5,0 0.11785,-0.11786 -0.0745,-0.35093 0,-0.5 0.10541,-0.21082 0.36926,-0.30389 0.5,-0.5 0.20672,-0.31009 0.29327,-0.68992 0.5,-1 0.14129,-0.21194 1.29312,-1.39657 1.5,-1.5 0.14907,-0.0745 0.38215,0.11785 0.5,0 0.11785,-0.11786 -0.11785,-0.38215 0,-0.5 0.11785,-0.11786 0.5,-0.16667 0.5,0 0,0.16666 -0.61785,-0.11786 -0.5,0 0.26352,0.26352 0.73648,0.23647 1,0.5 0.25,0.25 -0.25,1.25 0,1.5 0.11785,0.11785 0.38215,-0.11786 0.5,0 0.2357,0.2357 -0.14907,0.70185 0,1 0.10541,0.21081 0.28918,0.39459 0.5,0.5 0.14907,0.0745 0.33333,0 0.5,0 0.16667,0 0.33333,0 0.5,0 1,0 2,0 3,0"
       id="path4046"
       inkscape:connector-curvature="0" />
    <path
       style="fill:none;stroke:#000000;stroke-width:5;stroke-linecap:butt;stroke-linejoin:miter;stroke-miterlimit:4;stroke-opacity:1;stroke-dasharray:none"
       d="m 276,178.86219 c -0.16667,0.66666 -0.36523,1.32616 -0.5,2 -0.09,0.45 0,1.04 0,1.5 0,1.16666 0,2.33333 0,3.5 0,0.45068 -0.1049,2.1853 0,2.5 0.30491,0.91474 0.85638,1.35637 1.5,2 0.16667,0.16666 0.39459,0.28918 0.5,0.5 0.2357,0.4714 0.37217,0.98869 0.5,1.5 0.0513,0.20528 -0.0606,0.93939 0,1 0.11785,0.11785 0.38215,-0.11786 0.5,0 0.11785,0.11785 0,0.33333 0,0.5 0,0.16666 0,0.33333 0,0.5 0,0.66666 -0.0943,1.34003 0,2 0.0745,0.52174 0.42546,0.97825 0.5,1.5 0.0943,0.65996 0,1.33333 0,2 0,0.16666 -0.0327,0.33657 0,0.5 0.13477,0.67384 0.36523,1.32616 0.5,2 0.11265,0.56324 0,1.39455 0,2 0,1 0,2 0,3 0,0.16666 0,0.33333 0,0.5 0,0.16666 -0.0745,0.35092 0,0.5 0.10541,0.21081 0.39459,0.28918 0.5,0.5 0.13562,0.27124 -0.13681,1.86318 0,2 0.11785,0.11785 0.38215,-0.11786 0.5,0 0.11785,0.11785 0,0.33333 0,0.5 0,0.16666 0,0.33333 0,0.5 0,0.55888 -0.0279,4.97206 0,5 0.66667,0.66666 0.5,-0.83334 0.5,0.5"
       id="path4048"
       inkscape:connector-curvature="0" />
    <rect
       y="281.26224"
       x="310.06631"
       height="25.809397"
       width="70.357124"
       id="rect4052"
       style="fill:#002b11;stroke:none" />
    <text
       sodipodi:linespacing="125%"
       id="text4054"
       y="300.87564"
       x="315.51712"
       style="font-size:40px;font-style:normal;font-weight:normal;line-height:125%;letter-spacing:0px;word-spacing:0px;fill:#ffffff;fill-opacity:1;stroke:none;font-family:Sans"
       xml:space="preserve"><tspan
         style="font-size:20px;fill:#ffffff;stroke:none"
         y="300.87564"
         x="315.51712"
         id="tspan4056"
         sodipodi:role="line">NAND</tspan></text>
    <path
       inkscape:connector-curvature="0"
       id="path4097"
       d="m 249.54841,168.7477 c 0.91758,-0.27131 1.86979,-0.43966 2.75274,-0.81392 0.71257,-0.30204 0.5785,-0.86836 1.34249,-0.92195 0.14871,-0.0104 0.27507,0.11867 0.41262,0.178 0.58503,-0.24798 1.2099,-0.41304 1.7551,-0.74394 0.257,-0.156 0.119,-0.65104 0.34483,-0.85197 0.15969,-0.14209 0.42535,-0.10591 0.58504,-0.24799 0.11288,-0.10048 0.0596,-0.32551 0.17241,-0.42599 0.15969,-0.14208 0.46718,-0.0675 0.58504,-0.24798 0.33331,-0.5104 0.33322,-1.21048 0.68967,-1.70395 0.0891,-0.12337 0.27472,0.23646 0.41262,0.17801 0.13789,-0.0584 0.11494,-0.28399 0.17241,-0.42598 0.40232,-0.99398 0.80462,-1.98794 1.20693,-2.98192 0.28736,-0.70997 0.57473,-1.41995 0.86208,-2.12992 0.0575,-0.14201 0.0345,-0.36755 0.17242,-0.426 0.1379,-0.0584 0.27508,0.11867 0.41262,0.17801"
       style="fill:none;stroke:#000000;stroke-width:7;stroke-linecap:butt;stroke-linejoin:miter;stroke-miterlimit:4;stroke-opacity:1;stroke-dasharray:none" />
    <path
       style="fill:none;stroke:#000000;stroke-width:7;stroke-linecap:butt;stroke-linejoin:miter;stroke-miterlimit:4;stroke-opacity:1;stroke-dasharray:none"
       d="m 280.01428,333.85693 c 0.47141,-0.11785 0.93492,-0.27367 1.41422,-0.35356 0.43085,-0.0718 1.76167,0 2.12132,0 1.06066,0 2.12132,0 3.18198,0 0.0857,0 1.04929,0.0114 1.06066,0 0.0833,-0.0833 -0.0833,-0.27022 0,-0.35355 0.0833,-0.0833 0.2357,0 0.35355,0 0.11785,0 0.2357,0 0.35356,0 0.7071,0 1.41421,0 2.12132,0 0.15922,0 -5.05735,-0.76091 -4.94975,-0.70711 0.29814,0.14907 0.40896,0.55804 0.7071,0.70711 0.10541,0.0527 0.27022,-0.0833 0.35356,0 0.0833,0.0833 -0.0527,0.24814 0,0.35355 0.0745,0.14907 0.2357,0.2357 0.35355,0.35355 0.11785,0.11786 0.20448,0.27902 0.35355,0.35356 0.48768,0.24384 0.31625,-0.42817 0.70711,0.35355 0.0527,0.10541 -0.0833,0.27022 0,0.35355 0.0833,0.0833 0.24814,-0.0527 0.35355,0 0.75479,0.3774 -0.0477,0.32972 0.70711,0.70711 0.21082,0.10541 0.49629,-0.10541 0.70711,0 0.14907,0.0745 0.20448,0.27902 0.35355,0.35356 0.10541,0.0527 0.24814,-0.0527 0.35355,0 0.6509,0.32544 0.0562,0.73521 0.70711,1.06066 0.10541,0.0527 0.24814,-0.0527 0.35355,0 0.14908,0.0745 0.20449,0.27901 0.35356,0.35355 0.10541,0.0527 0.27022,-0.0833 0.35355,0 0.0833,0.0833 -0.0833,0.27022 0,0.35355 0.0833,0.0833 0.24814,-0.0527 0.35355,0 0.14908,0.0745 0.20449,0.27902 0.35356,0.35356 0.10541,0.0527 0.24814,-0.0527 0.35355,0 0.14907,0.0745 0.20448,0.27901 0.35355,0.35355 0.10541,0.0527 0.24815,-0.0527 0.35356,0 1.4714,0.7357 -0.37796,-0.0244 0.35355,0.70711 0.0833,0.0833 0.27022,-0.0833 0.35355,0 0.0114,0.0114 0,0.97491 0,1.06066 0,0.2506 0.0457,2.0299 0,2.12132 -0.0745,0.14907 -0.27901,0.20448 -0.35355,0.35355 -0.0701,0.14018 0.0723,0.98838 0,1.06066 -0.0833,0.0833 -0.27022,-0.0833 -0.35355,0 -0.16667,0.16667 0.10541,0.49629 0,0.70711 -0.0745,0.14907 -0.27902,0.20448 -0.35356,0.35355 -0.11152,0.22305 0.11153,1.54472 0,1.76777 -0.0745,0.14907 -0.27901,0.20448 -0.35355,0.35355 -0.0527,0.10541 0.0527,0.24814 0,0.35355 -0.0745,0.14907 -0.27902,0.20449 -0.35355,0.35356 -0.0527,0.10541 0.0527,0.24814 0,0.35355 -0.0745,0.14907 -0.27902,0.20448 -0.35356,0.35355 -0.0527,0.10541 0.0527,0.24815 0,0.35356 -0.0745,0.14907 -0.27901,0.20448 -0.35355,0.35355 -0.0527,0.10541 0.0833,0.27022 0,0.35355 -0.0833,0.0833 -0.27022,-0.0833 -0.35355,0 -0.0833,0.0833 0.0527,0.24815 0,0.35356 -0.0745,0.14907 -0.27902,0.20448 -0.35356,0.35355 -0.1111,0.22222 0.11111,1.192 0,1.41421 -0.0745,0.14908 -0.27901,0.20449 -0.35355,0.35356 -0.0527,0.10541 0.0527,0.24814 0,0.35355 -0.0745,0.14907 -0.27902,0.20448 -0.35355,0.35355 -0.0527,0.10541 0.0833,0.27022 0,0.35356 -0.0833,0.0833 -0.27022,-0.0833 -0.35356,0 -0.16666,0.16666 0.16667,0.54044 0,0.7071 -0.0833,0.0833 -0.27022,-0.0833 -0.35355,0 -0.16667,0.16667 0.10541,0.49629 0,0.70711 -0.0745,0.14907 -0.27902,0.20448 -0.35355,0.35355 -0.0527,0.10541 0.0527,0.24815 0,0.35356 -0.0745,0.14907 -0.27902,0.20448 -0.35356,0.35355 -0.0527,0.10541 0.0833,0.27022 0,0.35355 -0.0851,0.0851 -1.32913,-0.0851 -1.41421,0 -0.0833,0.0833 0.0833,0.27022 0,0.35356 -0.0833,0.0833 -0.27022,-0.0833 -0.35355,0 -0.18634,0.18634 -0.16722,0.52077 -0.35356,0.70711 -0.0833,0.0833 -0.24814,-0.0527 -0.35355,0 -0.14907,0.0745 -0.21488,0.2611 -0.35355,0.35355 -0.21927,0.14617 -0.48785,0.20738 -0.70711,0.35355 -0.32185,0.21457 5.26312,1.61109 4.94975,1.76777 -0.33333,0.16667 -0.72733,0.18689 -1.06066,0.35356 -1.47141,0.7357 0.37796,-0.0244 -0.35355,0.7071 -0.67011,0.67011 -0.91749,0.14099 -1.76777,0.35356 -0.32338,0.0808 -0.39762,0.58331 -0.70711,0.7071 -0.45116,0.18047 -0.96305,0.17309 -1.41421,0.35356 -0.15475,0.0619 -0.19881,0.29165 -0.35355,0.35355 -0.45116,0.18046 -0.96306,0.17309 -1.41422,0.35355 -0.15474,0.0619 -0.19186,0.31313 -0.35355,0.35356 -0.343,0.0857 -0.71766,-0.0858 -1.06066,0 -0.16169,0.0404 -0.20448,0.27901 -0.35356,0.35355 -0.33333,0.16667 -0.6991,0.26316 -1.06066,0.35355 -0.11433,0.0286 -0.24814,-0.0527 -0.35355,0 -0.14907,0.0745 -0.19186,0.31313 -0.35355,0.35356 -0.41317,0.10329 -2.10033,-0.12485 -2.47488,0 -0.15811,0.0527 -0.20448,0.27901 -0.35355,0.35355 -0.12101,0.0605 -2.41867,0 -2.82843,0 -0.7071,0 -1.41421,0 -2.12132,0 -0.11785,0 -0.2357,0 -0.35355,0 -0.11785,0 -0.24814,0.0527 -0.35355,0 -0.69404,-0.34702 -0.15917,-0.67189 -0.35356,-1.06066 -0.0338,-0.0677 -1.34653,-1.38038 -1.41421,-1.41421 -0.10541,-0.0527 -0.30085,0.1054 -0.35355,0 -0.21731,-0.43462 -0.05,-1.03478 -0.35356,-1.41422 -0.23281,-0.29101 -0.72732,-0.18688 -1.06066,-0.35355 -0.10351,-0.0518 -1.38793,-1.33537 -1.41421,-1.41421 -0.0745,-0.22361 0.0745,-0.4835 0,-0.70711 -0.10541,-0.31623 -0.55804,-0.40897 -0.70711,-0.70711 -0.0527,-0.10541 0.0527,-0.24814 0,-0.35355 -0.0745,-0.14907 -0.27902,-0.20448 -0.35355,-0.35356 -0.0527,-0.1054 0.0527,-0.24814 0,-0.35355 -0.0745,-0.14907 -0.27902,-0.20448 -0.35355,-0.35355 -0.0527,-0.10541 0.0527,-0.24815 0,-0.35356 -0.80904,-1.61807 0.14653,1.50028 -0.70711,-1.06066 -0.0745,-0.2236 0.10541,-0.49628 0,-0.7071 -0.0745,-0.14907 -0.27902,-0.20448 -0.35355,-0.35356 -0.10541,-0.21081 0.1054,-0.49628 0,-0.7071 -0.0745,-0.14907 -0.27902,-0.20448 -0.35356,-0.35356 -0.0527,-0.10541 0,-0.2357 0,-0.35355 0,-0.11785 0,-0.2357 0,-0.35355 0,-0.70711 0,-1.41422 0,-2.12132 0,-0.94281 0,-1.88562 0,-2.82843 0,-0.18488 -0.0465,-1.32125 0,-1.41421 0.0745,-0.14907 0.2357,-0.23571 0.35356,-0.35356 0.11785,-0.11785 0.20448,-0.27901 0.35355,-0.35355 0.10541,-0.0527 0.24814,0.0527 0.35355,0 0.14907,-0.0745 0.2357,-0.2357 0.35356,-0.35355 0.11785,-0.11785 0.27901,-0.20449 0.35355,-0.35356 0.0527,-0.10541 -0.0527,-0.24814 0,-0.35355 0.39086,-0.78173 0.21943,-0.10972 0.70711,-0.35355 0.14907,-0.0745 0.2357,-0.23571 0.35355,-0.35356 0.11785,-0.11785 0.27902,-0.20448 0.35355,-0.35355 0.0527,-0.10541 -0.0833,-0.27022 0,-0.35355 0.16667,-0.16667 0.49629,0.10541 0.70711,0 0.14907,-0.0745 0.20448,-0.27902 0.35355,-0.35356 0.35356,-0.11785 0.70711,-0.2357 1.06066,-0.35355 0.11785,-0.11785 0.20448,-0.27902 0.35356,-0.35355 0.10541,-0.0527 0.27022,0.0833 0.35355,0 0.0833,-0.0833 -0.0833,-0.27022 0,-0.35356 0.0833,-0.0833 0.24814,0.0527 0.35355,0 0.14907,-0.0745 0.18689,-0.35355 0.35356,-0.35355 0.11785,0 0,0.2357 0,0.35355 0,0.2357 0,0.47141 0,0.70711 0,1.06066 0,2.12132 0,3.18198 0,1.29636 0,2.59272 0,3.88909 0,0.3723 -0.0733,1.47478 0,1.76776 0.7357,2.94281 -0.0244,-0.42677 0.7071,1.76777 0.0373,0.1118 0,0.2357 0,0.35355 0.11785,0.11786 0.27902,0.20449 0.35356,0.35356 0.0527,0.10541 -0.0833,0.27022 0,0.35355 0.16666,0.16667 0.54044,-0.16667 0.7071,0 0.0833,0.0833 -0.0833,0.27022 0,0.35355 0.16667,0.16667 0.54044,-0.16666 0.70711,0 0.16667,0.16667 -0.16667,0.54044 0,0.70711 0.0833,0.0833 0.27022,-0.0833 0.35355,0 0.16667,0.16667 -0.10541,0.49629 0,0.70711 0.73571,1.4714 -0.0244,-0.37796 0.70711,0.35355 0.0833,0.0833 -0.0527,0.24815 0,0.35355 0.7357,1.47141 -0.0244,-0.37796 0.70711,0.35356 0.0833,0.0833 -0.0527,0.24814 0,0.35355 0.7357,1.47141 -0.0244,-0.37796 0.7071,0.35355 0.0833,0.0833 -0.0833,0.27022 0,0.35356 0.0833,0.0833 0.27022,-0.0833 0.35356,0 0.0833,0.0833 -0.0527,0.24814 0,0.35355 0.0745,0.14907 0.27901,0.20448 0.35355,0.35356 0.10541,0.21081 -0.10541,0.49628 0,0.7071 0.21213,0.42427 0.84853,0.6364 1.06066,1.06066 0.0527,0.10541 -0.0373,0.24175 0,0.35356 0.85365,2.56093 -0.10193,-0.55742 0.70711,1.06066 0.0527,0.1054 -0.0527,0.24814 0,0.35355 1.17259,1.17259 -0.16667,-0.33333 0.35355,0.70711 0.37555,0.7511 0.33156,-0.044 0.70711,0.7071 0.0527,0.10541 -0.0833,0.27022 0,0.35356 0.0833,0.0833 0.27022,-0.0833 0.35355,0 0.0833,0.0833 -0.0833,0.27022 0,0.35355 0.0833,0.0833 0.27022,-0.0833 0.35355,0 0.0833,0.0833 -0.0527,0.24814 0,0.35355 0.73571,1.47141 -0.0244,-0.37796 0.70711,0.35356 0.0833,0.0833 -0.0833,0.27022 0,0.35355 0.0833,0.0833 0.27022,-0.0833 0.35355,0 0.0833,0.0833 -0.0833,0.27022 0,0.35355 0.0833,0.0833 0.27022,-0.0833 0.35356,0 0.16666,0.16667 -0.16667,0.54044 0,0.70711 0.0833,0.0833 0.27022,-0.0833 0.35355,0 0.16667,0.16667 -0.16667,0.54044 0,0.70711 0.0833,0.0833 0.24815,-0.0527 0.35355,0 0.14908,0.0745 0.21488,0.2611 0.35356,0.35355 0.21926,0.14618 0.52077,0.16721 0.7071,0.35355 0.0833,0.0833 -0.0527,0.24815 0,0.35356 0.0745,0.14907 0.27902,0.20448 0.35356,0.35355 0.0527,0.10541 -0.0527,0.24814 0,0.35355 0.39086,0.78173 0.21943,0.10972 0.70711,0.35356 0.14907,0.0745 0.2357,0.2357 0.35355,0.35355 0.11785,0.11785 0.2357,0.2357 0.35355,0.35355 0.27616,0.27616 0.85727,0.75558 1.06066,1.06066 0.14618,0.21927 0.20738,0.48785 0.35356,0.70711 0.1849,0.27735 0.55803,0.40896 0.7071,0.70711 0.10541,0.21082 -0.16666,0.54044 0,0.7071 0.0833,0.0833 0.27022,-0.0833 0.35356,0 0.0833,0.0833 0,0.23571 0,0.35356 0,0.35355 0,0.7071 0,1.06066 0,1.17851 0,2.35702 0,3.53553 0,3.41768 0,6.83537 0,10.25305 0,0.28004 0.0518,2.92317 0,3.18198 -0.0327,0.16343 -0.18689,0.35355 -0.35356,0.35355 -0.11785,0 0,-0.2357 0,-0.35355 0,-0.11785 0,-0.2357 0,-0.35355 0,-0.11785 -0.0527,-0.24815 0,-0.35356 0.43689,-0.87377 0.35356,0.12204 0.35356,-0.7071"
       id="path4103"
       inkscape:connector-curvature="0"
       transform="translate(-109.70534,-124.92838)"
       sodipodi:nodetypes="ccssccssssccccccccccccccccccccccscscccccccccscccccccccccscccccsccccccscccccscccccccccccccssscccsscccccccsccccccssssccccccccssccccccccsssssccccccccscsssscsccccsccscsccccccsccccscscccccccsssccscsssscssscc" />
    <path
       style="fill:none;stroke:#000000;stroke-width:7;stroke-linecap:butt;stroke-linejoin:miter;stroke-opacity:1;stroke-miterlimit:4;stroke-dasharray:none"
       d="m 288.85312,395.37522 c 0.58925,-0.2357 1.17851,-0.47141 1.76777,-0.70711 0.35355,0 0.71766,0.0857 1.06066,0 0.16169,-0.0404 0.19544,-0.30085 0.35355,-0.35355 0.57009,-0.19003 1.19768,-0.16353 1.76777,-0.35356 0.15811,-0.0527 0.19012,-0.32086 0.35355,-0.35355 0.46225,-0.0924 0.94922,0.0775 1.41421,0 0.25994,-0.0433 0.45711,-0.27022 0.70711,-0.35355 0.46098,-0.15366 0.96306,-0.17309 1.41421,-0.35356 0.15475,-0.0619 0.19881,-0.29165 0.35356,-0.35355 0.45116,-0.18046 0.96305,-0.17309 1.41421,-0.35355 0.15475,-0.0619 0.19186,-0.31313 0.35355,-0.35356 0.343,-0.0857 0.71767,0.0858 1.06066,0 0.16169,-0.0404 0.21064,-0.2678 0.35356,-0.35355 0.45194,-0.27116 1.0768,-0.30222 1.41421,-0.70711 0.31108,-0.37328 0.01,-1.07062 0.35355,-1.41421 0.72533,-0.72532 1.36237,0.10369 1.76777,-0.70711 0.16667,-0.33333 0.18689,-0.72732 0.35356,-1.06066 0.0745,-0.14907 0.27901,-0.20448 0.35355,-0.35355 0.0527,-0.10541 0,-0.2357 0,-0.35355 0,-0.23571 -0.0387,-0.47462 0,-0.70711 0.0799,-0.4793 0.11247,-0.99232 0.35355,-1.41421 0.24807,-0.43413 0.81259,-0.62654 1.06066,-1.06066 0.24108,-0.42189 0.18294,-0.95924 0.35356,-1.41422 0.58514,-1.56039 1.22423,-1.96564 2.12132,-3.53553 0.0585,-0.10233 -0.0527,-0.24815 0,-0.35355 0.0745,-0.14908 0.27901,-0.20449 0.35355,-0.35356 0.0527,-0.10541 0,-0.2357 0,-0.35355 0,-0.37841 -0.10166,-1.61528 0,-1.76777 0.32686,-0.49029 0.97622,-0.66647 1.41421,-1.06066 0.7433,-0.66896 1.41422,-1.41421 2.12132,-2.12132 0.11785,-0.11785 0.22341,-0.24944 0.35356,-0.35355 0.46013,-0.36811 0.95408,-0.69256 1.41421,-1.06066 0.13014,-0.10412 0.20448,-0.27902 0.35355,-0.35356 0.21082,-0.10541 0.54044,0.16667 0.70711,0 0.0833,-0.0833 -0.0833,-0.27022 0,-0.35355 0.0833,-0.0833 0.2357,0 0.35355,0 0.11785,0 0.23571,0 0.35356,0 0.15922,0 0.95306,0.0538 1.06066,0 0.69404,-0.34702 0.15917,-0.67189 0.35355,-1.06066 0.14907,-0.29814 0.52221,-0.42976 0.70711,-0.70711 0.11785,-0.2357 0.2357,-0.4714 0.35355,-0.7071 0,-0.11785 -0.0527,-0.24815 0,-0.35356 0.21213,-0.42426 0.84853,-0.63639 1.06066,-1.06066 0.0527,-0.10541 0,-0.2357 0,-0.35355"
       id="path4105"
       inkscape:connector-curvature="0"
       transform="translate(-109.70534,-124.92838)" />
  </g>
  <g
     inkscape:groupmode="layer"
     id="layer2"
     inkscape:label="gates"
     style="display:inline"
     transform="translate(109.70534,124.92838)">
    <rect
       style="fill:#0000ff;stroke:none"
       id="rect3991"
       width="13.5"
       height="21.843458"
       x="199"
       y="47.862183" />
    <g
       id="g4099"
       transform="matrix(-0.71072905,0,0,-0.80251973,274.62318,362.89397)">
      <rect
         y="179.86218"
         x="144.5"
         height="55"
         width="22"
         id="rect4002"
         style="fill:#00ccff;stroke:none;display:inline" />
      <rect
         transform="matrix(0,1,-1,0,0,0)"
         style="fill:#00ccff;stroke:none;display:inline"
         id="rect4004"
         width="20.5"
         height="55"
         x="179.36218"
         y="-199.5" />
    </g>
    <rect
       transform="matrix(-0.70710678,0.70710678,-0.70710678,-0.70710678,0,0)"
       y="-422.61798"
       x="-27.383865"
       height="44.180195"
       width="14.5"
       id="rect4050"
       style="fill:#0000ff;stroke:none;display:inline" />
    <rect
       style="fill:#0000ff;stroke:none;display:inline"
       id="rect4042"
       width="14.5"
       height="44.180195"
       x="-259.61218"
       y="244.25"
       transform="matrix(0,-1,1,0,0,0)" />
    <rect
       y="213.36218"
       x="274"
       height="47.362175"
       width="14.5"
       id="rect4044"
       style="fill:#0000ff;stroke:none;display:inline" />
    <rect
       style="fill:#554dff;fill-opacity:1;stroke:none"
       id="rect4107"
       width="21.566757"
       height="21.566757"
       x="344.00745"
       y="268.8031"
       transform="translate(-109.70534,-124.92838)" />
    <rect
       style="fill:#554dff;fill-opacity:1;stroke:none;display:inline"
       id="rect4107-1"
       width="21.566757"
       height="21.566757"
       x="-73.22316"
       y="27.76128"
       transform="matrix(0,-1,1,0,0,0)" />
  </g>
</svg>
